<svg width="330" height="330" viewBox="0 0 330 330" fill="none" xmlns="http://www.w3.org/2000/svg">
<rect width="330" height="330" fill="#1E1E1E"/>
<g clip-path="url(#clip0_51_41)">
<path d="M172 173.911C172 164.281 175.826 155.045 182.635 148.235C189.445 141.426 198.681 137.6 208.311 137.6C217.941 137.6 227.177 141.426 233.987 148.235C240.797 155.045 244.622 164.281 244.622 173.911C244.622 183.541 240.797 192.777 233.987 199.587C227.177 206.397 217.941 210.222 208.311 210.222C198.681 210.222 189.445 206.397 182.635 199.587C175.826 192.777 172 183.541 172 173.911Z" fill="#1ABCFE"/>
<path d="M99.3779 246.533C99.3779 236.903 103.204 227.667 110.013 220.857C116.823 214.048 126.059 210.222 135.689 210.222H172V246.533C172 256.164 168.175 265.399 161.365 272.209C154.555 279.019 145.319 282.844 135.689 282.844C126.059 282.844 116.823 279.019 110.013 272.209C103.204 265.399 99.3779 256.164 99.3779 246.533V246.533Z" fill="#0ACF83"/>
<path d="M172 64.9778V137.6H208.311C217.941 137.6 227.177 133.774 233.987 126.965C240.797 120.155 244.622 110.919 244.622 101.289C244.622 91.6586 240.797 82.4227 233.987 75.6131C227.177 68.8034 217.941 64.9778 208.311 64.9778H172Z" fill="#FF7262"/>
<path d="M99.3779 101.289C99.3779 110.919 103.204 120.155 110.013 126.965C116.823 133.774 126.059 137.6 135.689 137.6H172V64.9778H135.689C126.059 64.9778 116.823 68.8034 110.013 75.6131C103.204 82.4227 99.3779 91.6586 99.3779 101.289V101.289Z" fill="#F24E1E"/>
<path d="M99.3779 173.911C99.3779 183.541 103.204 192.777 110.013 199.587C116.823 206.397 126.059 210.222 135.689 210.222H172V137.6H135.689C126.059 137.6 116.823 141.426 110.013 148.235C103.204 155.045 99.3779 164.281 99.3779 173.911V173.911Z" fill="#A259FF"/>
</g>
<defs>
<clipPath id="clip0_51_41">
<rect width="145.244" height="217.867" fill="white" transform="translate(99.3779 64.9778)"/>
</clipPath>
</defs>
</svg>
