<svg width="330" height="370" viewBox="0 0 330 370" fill="none" xmlns="http://www.w3.org/2000/svg">
<path d="M58.0488 0H74.6399V16.4766H89.9325V0H106.524V49.8633H89.9325V33.2422H74.7842V49.8633H58.0488V0ZM128.453 16.6211H113.809V0H159.759V16.6211H145.044V49.8633H128.453V16.6211ZM167.045 0H184.429L195.105 17.5605L205.781 0H223.166V49.8633H206.575V25.1484L194.961 43.0703L183.347 25.1484V49.8633H167.045V0ZM231.389 0H247.98V33.3867H271.496V49.8633H231.389" fill="black"/>
<path d="M57.4716 340.371L33.667 72.6992H295.373L271.568 340.227L164.304 370" fill="#E44D26"/>
<path d="M164.521 347.236V94.668H271.497L251.083 323.027" fill="#F16529"/>
<path d="M82.2861 127.404H164.52V160.213H118.209L121.239 193.816H164.52V226.553H91.2309L82.2861 127.404ZM92.6736 243.029H125.567L127.875 269.262L164.52 279.09V313.344L97.2902 294.555" fill="#EBEBEB"/>
<path d="M246.466 127.404H164.376V160.213H243.436L246.466 127.404ZM240.478 193.816H164.376V226.625H204.772L200.948 269.262L164.376 279.09V313.199L231.462 294.555" fill="white"/>
</svg>
