<svg width="329" height="321" viewBox="0 0 329 321" fill="none" xmlns="http://www.w3.org/2000/svg">
<path d="M270.74 0H58.2604C26.0841 0 0 26.1024 0 58.3013V262.699C0 294.898 26.0841 321 58.2604 321H270.74C302.916 321 329 294.898 329 262.699V58.3013C329 26.1024 302.916 0 270.74 0Z" fill="#330000"/>
<path d="M159.428 192.638H108.446L98.0726 224.883C97.9312 225.471 97.5893 225.991 97.1059 226.354C96.6224 226.717 96.0276 226.9 95.424 226.871H69.6017C68.1291 226.871 67.6141 226.061 68.0568 224.441L112.197 97.2264C112.639 95.9015 113.081 94.3923 113.522 92.6988C114.099 89.7521 114.395 86.7571 114.405 83.7543C114.375 83.5443 114.394 83.3302 114.461 83.1289C114.528 82.9277 114.641 82.7448 114.791 82.5948C114.941 82.4448 115.124 82.3317 115.325 82.2646C115.526 82.1974 115.74 82.1781 115.95 82.208H151.041C152.069 82.208 152.658 82.5762 152.807 83.3125L202.907 224.662C203.348 226.136 202.907 226.872 201.583 226.871H172.891C172.398 226.925 171.902 226.799 171.496 226.514C171.09 226.23 170.801 225.807 170.684 225.325L159.428 192.638ZM116.391 164.809H151.262C150.379 161.866 149.349 158.553 148.172 154.871C146.993 151.192 145.742 147.253 144.421 143.055C143.096 138.859 141.771 134.662 140.447 130.466C139.123 126.27 137.91 122.22 136.806 118.318C135.702 114.419 134.709 110.849 133.827 107.607H133.606C132.363 113.572 130.816 119.469 128.971 125.276C126.909 131.901 124.812 138.674 122.681 145.595C120.546 152.517 118.449 158.922 116.391 164.809H116.391Z" fill="#FF9A00"/>
<path d="M232.696 105.62C230.445 105.71 228.2 105.324 226.108 104.487C224.017 103.649 222.125 102.38 220.557 100.761C218.994 99.0714 217.779 97.0896 216.984 94.9291C216.188 92.7687 215.828 90.4722 215.922 88.1717C215.842 85.8939 216.243 83.6249 217.098 81.5127C217.954 79.4005 219.245 77.4927 220.888 75.9139C222.515 74.3515 224.435 73.1273 226.537 72.3123C228.64 71.4972 230.883 71.1075 233.137 71.1656C238.434 71.1656 242.591 72.7484 245.607 75.9139C247.129 77.5591 248.313 79.4885 249.089 81.5919C249.865 83.6952 250.22 85.9312 250.131 88.1717C250.223 90.4812 249.851 92.7856 249.036 94.9482C248.221 97.1108 246.98 99.0874 245.386 100.761C243.721 102.403 241.733 103.683 239.549 104.52C237.365 105.356 235.032 105.73 232.696 105.62ZM217.467 224.662V119.092C217.467 117.767 218.053 117.104 219.233 117.104H246.379C247.556 117.104 248.144 117.767 248.145 119.092V224.662C248.145 226.136 247.557 226.872 246.379 226.871H219.453C218.129 226.871 217.467 226.135 217.467 224.662Z" fill="#FF9A00"/>
</svg>
