<svg width="329" height="329" viewBox="0 0 329 329" fill="none" xmlns="http://www.w3.org/2000/svg">
<g clip-path="url(#clip0_51_86)">
<path fill-rule="evenodd" clip-rule="evenodd" d="M329 9.87021C329 4.42288 324.578 0.000244141 319.13 0.000244141H9.87096C4.42362 0.000244141 0.000976562 4.42288 0.000976562 9.87021V319.129C0.000976562 324.576 4.42362 328.999 9.87096 328.999H319.13C324.578 328.999 329 324.576 329 319.129V9.87021Z" fill="#1B72BE"/>
<path fill-rule="evenodd" clip-rule="evenodd" d="M139.966 128.614L183.211 203.054H126.801C117.344 203.054 109.666 195.375 109.666 185.918C109.666 183.106 110.345 180.452 111.547 178.111L139.966 128.614Z" fill="#55D2FB"/>
<path fill-rule="evenodd" clip-rule="evenodd" d="M189.165 206.481L139.948 121.762L108.534 176.475C107.054 179.357 106.238 182.543 106.238 185.919C106.238 197.267 115.452 206.481 126.801 206.481H189.165ZM139.965 128.615L183.21 203.054H126.801C117.344 203.054 109.665 195.376 109.665 185.919C109.665 183.107 110.344 180.453 111.546 178.112L139.965 128.615Z" fill="black" fill-opacity="0.3"/>
<path fill-rule="evenodd" clip-rule="evenodd" d="M139.966 128.614L183.211 203.054H126.801C117.344 203.054 109.666 195.375 109.666 185.918C109.666 183.106 110.345 180.452 111.547 178.111L139.966 128.614ZM139.983 135.467L177.257 199.627H126.801C119.235 199.627 113.093 193.484 113.093 185.918C113.093 183.702 113.619 181.607 114.556 179.755C114.561 179.744 139.983 135.467 139.983 135.467Z" fill="white" fill-opacity="0.3"/>
<path fill-rule="evenodd" clip-rule="evenodd" d="M147.354 115.748L216.762 -5.14038H344.421V203.054H198.074L147.354 115.748Z" fill="#55D2FB"/>
<path fill-rule="evenodd" clip-rule="evenodd" d="M214.777 -8.56763L143.396 115.757L196.101 206.481H347.847V-8.56763H214.777ZM147.353 115.748L216.762 -5.14056H344.42V203.054H198.074L147.353 115.748Z" fill="black" fill-opacity="0.3"/>
<path fill-rule="evenodd" clip-rule="evenodd" d="M147.354 115.748L216.762 -5.14038H344.421V203.054H198.074L147.354 115.748ZM151.311 115.737L218.746 -1.71331H340.994V199.627H200.047L151.311 115.737Z" fill="white" fill-opacity="0.3"/>
<path fill-rule="evenodd" clip-rule="evenodd" d="M344.423 216.763H97.6738L167.929 340.137H344.423V216.763Z" fill="#55D2FB"/>
<path fill-rule="evenodd" clip-rule="evenodd" d="M347.849 343.563V213.335H91.7773L165.936 343.563H347.849ZM344.422 216.762H97.6728L167.928 340.136H344.422V216.762Z" fill="black" fill-opacity="0.3"/>
<path fill-rule="evenodd" clip-rule="evenodd" d="M344.423 216.763H97.6738L167.929 340.137H344.423V216.763ZM340.996 220.19V336.71H169.921L103.569 220.19H340.996Z" fill="white" fill-opacity="0.3"/>
<path fill-rule="evenodd" clip-rule="evenodd" d="M153.364 340.137H-10.2793V275.023L150.793 -5.14014H202.2L77.9679 209.052L153.364 340.137Z" fill="#55D2FB"/>
<path fill-rule="evenodd" clip-rule="evenodd" d="M-13.708 343.564H159.287L81.9237 209.058C93.6443 188.851 205.162 -3.42102 205.162 -3.42102L208.147 -8.56763H148.809L-13.708 274.107V343.564ZM153.362 340.137H-10.2809V275.022L150.792 -5.14056H202.198L77.9663 209.051L153.362 340.137Z" fill="black" fill-opacity="0.3"/>
<path fill-rule="evenodd" clip-rule="evenodd" d="M153.364 340.137H-10.2793V275.023L150.793 -5.14014H202.2L77.9679 209.052L153.364 340.137ZM147.439 336.71H-6.85222V275.938L152.776 -1.71307H196.25L75.0035 207.332C74.3892 208.392 74.3867 209.699 74.9975 210.76L147.439 336.71Z" fill="white" fill-opacity="0.3"/>
</g>
<defs>
<clipPath id="clip0_51_86">
<rect width="329" height="329" fill="white"/>
</clipPath>
</defs>
</svg>
