<svg width="328" height="320" viewBox="0 0 328 320" fill="none" xmlns="http://www.w3.org/2000/svg">
<g clip-path="url(#clip0_51_48)">
<path d="M269.917 0H58.0833C26.0048 0 0 26.0211 0 58.1197V261.88C0 293.979 26.0048 320 58.0833 320H269.917C301.995 320 328 293.979 328 261.88V58.1197C328 26.0211 301.995 0 269.917 0Z" fill="#001E36"/>
<path d="M73.8506 224.404V83.7151C73.8506 82.6898 74.291 82.1739 75.1712 82.1739C77.5155 82.1739 79.656 82.1395 82.8845 82.0637C86.1097 81.9916 89.5935 81.9183 93.336 81.8437C97.0771 81.7713 101.038 81.6978 105.218 81.6234C109.398 81.5512 113.542 81.5145 117.65 81.5132C128.796 81.5132 138.184 82.9076 145.814 85.6965C152.696 88.0261 158.973 91.8621 164.187 96.9252C168.607 101.314 172.022 106.61 174.198 112.447C176.257 118.129 177.3 124.128 177.279 130.171C177.279 141.916 174.566 151.603 169.138 159.234C163.675 166.895 155.995 172.697 147.135 175.857C137.893 179.307 127.624 180.477 116.33 180.477C113.101 180.477 110.828 180.441 109.509 180.367C108.189 180.295 106.208 180.258 103.568 180.257V224.184C103.606 224.453 103.582 224.728 103.496 224.986C103.41 225.244 103.265 225.478 103.073 225.67C102.881 225.863 102.646 226.007 102.389 226.093C102.131 226.179 101.857 226.204 101.588 226.166H75.3908C74.3631 226.166 73.8506 225.581 73.8506 224.404ZM103.568 108.594V154.481C105.473 154.629 107.233 154.703 108.849 154.701H116.11C121.452 154.684 126.76 153.836 131.842 152.188C136.201 150.893 140.097 148.371 143.064 144.923C145.924 141.548 147.354 136.851 147.355 130.832C147.471 126.573 146.363 122.37 144.164 118.722C141.851 115.195 138.509 112.466 134.592 110.906C129.478 108.917 124.015 107.981 118.53 108.154C115.009 108.154 111.892 108.191 109.179 108.264C106.463 108.34 104.593 108.45 103.568 108.594V108.594Z" fill="#31A8FF"/>
<path d="M262.355 146.137C258.219 144.011 253.815 142.456 249.262 141.513C244.246 140.362 239.117 139.771 233.97 139.752C231.186 139.676 228.406 140.01 225.719 140.743C224.008 141.124 222.488 142.099 221.428 143.495C220.711 144.611 220.329 145.911 220.328 147.238C220.368 148.526 220.832 149.764 221.648 150.761C222.933 152.265 224.504 153.5 226.269 154.393C229.406 156.084 232.638 157.591 235.95 158.907C243.335 161.38 250.391 164.744 256.963 168.925C261.44 171.752 265.145 175.648 267.745 180.263C269.931 184.633 271.026 189.468 270.936 194.355C271.067 200.806 269.225 207.144 265.655 212.519C261.833 217.974 256.525 222.216 250.362 224.738C243.686 227.673 235.435 229.14 225.609 229.142C219.367 229.205 213.135 228.614 207.016 227.38C202.195 226.495 197.501 225.016 193.044 222.977C192.563 222.728 192.162 222.348 191.889 221.88C191.617 221.412 191.483 220.876 191.503 220.334V196.556C191.477 196.323 191.514 196.088 191.611 195.874C191.708 195.661 191.861 195.478 192.054 195.345C192.243 195.238 192.46 195.192 192.676 195.211C192.892 195.231 193.097 195.316 193.264 195.455C198.528 198.561 204.244 200.827 210.206 202.17C215.461 203.488 220.852 204.19 226.269 204.262C231.402 204.262 235.179 203.602 237.6 202.281C238.694 201.78 239.619 200.972 240.263 199.956C240.908 198.94 241.244 197.759 241.231 196.556C241.231 194.65 240.131 192.816 237.931 191.052C235.731 189.29 231.257 187.162 224.508 184.667C217.599 182.261 211.049 178.928 205.035 174.759C200.734 171.766 197.193 167.808 194.694 163.2C192.53 158.862 191.436 154.068 191.504 149.219C191.491 143.394 193.09 137.679 196.124 132.707C199.583 127.231 204.55 122.873 210.427 120.157C216.88 116.93 224.947 115.315 234.63 115.313C240.301 115.267 245.966 115.672 251.573 116.524C255.633 117.039 259.602 118.114 263.368 119.716C263.667 119.802 263.941 119.956 264.171 120.166C264.4 120.377 264.577 120.637 264.688 120.927C264.837 121.465 264.911 122.021 264.908 122.579V144.816C264.924 145.075 264.871 145.333 264.755 145.565C264.639 145.797 264.464 145.994 264.248 146.137C263.954 146.283 263.63 146.36 263.301 146.36C262.973 146.36 262.649 146.283 262.355 146.137Z" fill="#31A8FF"/>
</g>
<defs>
<clipPath id="clip0_51_48">
<rect width="328" height="320" fill="white"/>
</clipPath>
</defs>
</svg>
