<svg width="185" height="89" viewBox="0 0 185 89" fill="none" xmlns="http://www.w3.org/2000/svg">
<g clip-path="url(#clip0_51_128)">
<path d="M95.5119 42.8539L104.314 42.2826C104.514 43.7278 104.882 44.8033 105.485 45.5763C106.455 46.7862 107.794 47.3912 109.568 47.3912C110.873 47.3912 111.91 47.0887 112.613 46.4501C113.282 45.946 113.684 45.1394 113.684 44.2991C113.684 43.4925 113.316 42.7195 112.68 42.2153C112.011 41.6104 110.438 41.0054 107.961 40.4677C103.912 39.5602 101 38.3503 99.2936 36.8042C97.5868 35.359 96.6163 33.2416 96.6833 30.9898C96.6833 29.4438 97.1518 27.8978 98.0219 26.6206C99.0259 25.1754 100.398 24.0327 102.038 23.3941C103.812 22.6211 106.288 22.2178 109.4 22.2178C113.215 22.2178 116.127 22.9236 118.135 24.3688C120.143 25.7804 121.348 28.0658 121.716 31.1915L113.015 31.6956C112.78 30.3512 112.312 29.3766 111.542 28.738C110.772 28.0994 109.768 27.7969 108.463 27.7969C107.392 27.7969 106.589 28.0322 106.054 28.4691C105.552 28.8724 105.217 29.4774 105.251 30.1496C105.251 30.6537 105.518 31.1243 105.92 31.4267C106.355 31.83 107.392 32.1998 109.032 32.5358C113.082 33.4097 115.96 34.2835 117.733 35.191C119.507 36.0984 120.779 37.2075 121.548 38.5183C122.352 39.8627 122.753 41.4087 122.72 42.9884C122.72 44.8705 122.184 46.7526 121.113 48.3322C120.009 49.9791 118.47 51.2563 116.662 52.0293C114.755 52.8695 112.345 53.3064 109.467 53.3064C104.38 53.3064 100.867 52.3318 98.892 50.3488C96.9175 48.3659 95.7462 45.8788 95.5119 42.8539ZM2.10836 52.8023V22.7555H17.5362C20.3808 22.7555 22.5895 22.9908 24.0955 23.4949C25.568 23.9655 26.8732 24.9401 27.7433 26.2509C28.7138 27.6961 29.1823 29.3766 29.1489 31.1243C29.2493 34.0819 27.7433 36.9051 25.1664 38.3839C24.1624 38.9552 23.0581 39.3585 21.9202 39.5602C22.7569 39.7955 23.5935 40.1988 24.3298 40.6693C24.8987 41.1398 25.3672 41.6776 25.8023 42.2489C26.3043 42.8203 26.7393 43.4589 27.1075 44.1311L31.5919 52.8359H21.0836L16.1306 43.5933C15.4948 42.417 14.9593 41.644 14.4573 41.2743C13.788 40.8037 12.9848 40.5685 12.1816 40.5685H11.3784V52.7687H2.10836V52.8023ZM11.3784 34.9221H15.294C16.1306 34.8549 16.9338 34.7205 17.737 34.5188C18.3394 34.418 18.8748 34.0819 19.2429 33.5777C20.1465 32.3678 20.0127 30.6537 18.9083 29.6118C18.3059 29.1077 17.1346 28.8388 15.4613 28.8388H11.3784V34.9221ZM0 78.547L8.80156 77.9757C9.00235 79.4209 9.37048 80.4964 9.97287 81.2694C10.9099 82.4793 12.282 83.1179 14.0557 83.1179C15.3609 83.1179 16.3983 82.8154 17.1011 82.1769C17.7704 81.6391 18.172 80.8661 18.172 80.0259C18.172 79.2192 17.8039 78.4462 17.1681 77.9421C16.4987 77.3371 14.9258 76.7321 12.4159 76.1944C8.3665 75.2869 5.45496 74.077 3.74819 72.531C2.04143 71.0858 1.07091 68.9684 1.13784 66.7166C1.13784 65.1705 1.60637 63.6245 2.47648 62.3473C3.48046 60.9021 4.85257 59.7594 6.4924 59.1208C8.2661 58.3478 10.7426 57.9445 13.8549 57.9445C17.67 57.9445 20.5816 58.6503 22.5895 60.0955C24.5975 61.5407 25.7688 63.7925 26.1369 66.9182L17.4358 67.4224C17.2015 66.078 16.733 65.1033 15.9633 64.4647C15.227 63.8262 14.1896 63.5237 12.8844 63.5573C11.8135 63.5573 11.0103 63.7925 10.4749 64.2631C9.9394 64.6664 9.63821 65.2713 9.67167 65.9435C9.67167 66.4477 9.9394 66.9182 10.341 67.2207C10.776 67.624 11.8135 67.9937 13.4533 68.3298C17.5027 69.2036 20.3808 70.0775 22.1545 70.9849C23.9282 71.8924 25.1999 73.0015 25.9696 74.3123C26.7728 75.6566 27.1744 77.2027 27.1744 78.7487C27.1744 80.6308 26.6055 82.4793 25.568 84.059C24.4636 85.7058 22.9242 86.983 21.117 87.756C19.2095 88.5962 16.7999 89.0332 13.9219 89.0332C8.83502 89.0332 5.32109 88.0585 3.3466 86.0755C1.37211 84.059 0.267728 81.5719 0 78.547H0Z" fill="black"/>
<path d="M44.5098 76.1952L52.6086 78.6487C52.1735 80.6988 51.2699 82.6482 50.0317 84.3623C48.8939 85.8747 47.3879 87.051 45.6811 87.824C43.9409 88.597 41.7321 89.0004 39.0548 89.0004C35.8086 89.0004 33.1314 88.5298 31.0899 87.5888C29.0151 86.6477 27.2414 84.9672 25.7354 82.581C24.2294 80.1947 23.4932 77.1362 23.4932 73.4056C23.4932 68.4314 24.7983 64.6 27.4422 61.9448C30.086 59.2897 33.8007 57.9453 38.6198 57.9453C42.4015 57.9453 45.3465 58.7183 47.5217 60.2307C49.6636 61.7768 51.2699 64.1294 52.3408 67.2887L44.1751 69.1036C43.9744 68.3978 43.6732 67.692 43.2716 67.0871C42.7696 66.3813 42.1337 65.8435 41.364 65.4402C40.5943 65.0369 39.7242 64.8688 38.8541 64.8688C36.7457 64.8688 35.1393 65.7091 34.035 67.4232C33.1983 68.6667 32.7632 70.6496 32.7632 73.3384C32.7632 76.6657 33.2652 78.9512 34.2692 80.1947C35.2732 81.4383 36.6788 82.0432 38.5194 82.0432C40.2931 82.0432 41.6317 81.5391 42.5353 80.5644C43.4389 79.5225 44.1082 78.0773 44.5098 76.1952ZM63.4181 58.4495H72.6547V68.9692H82.7614V58.4495H92.065V88.4962H82.7614V76.3296H72.6547V88.4962H63.4181V58.4495V58.4495Z" fill="black"/>
<path d="M90.793 73.4723C90.793 68.5653 92.1651 64.7338 94.8758 62.0115C97.5866 59.2891 101.402 57.9111 106.254 57.9111C111.241 57.9111 115.056 59.2555 117.767 61.9443C120.477 64.633 121.816 68.3972 121.816 73.237C121.816 76.766 121.214 79.6228 120.042 81.8746C118.904 84.0928 117.131 85.9077 114.955 87.1177C112.713 88.3612 109.936 88.9998 106.622 88.9998C103.242 88.9998 100.465 88.462 98.2559 87.3865C95.9802 86.2438 94.1061 84.4625 92.8679 82.2779C91.4958 79.9253 90.793 77.0012 90.793 73.4723ZM100.03 73.5059C100.03 76.5307 100.599 78.7153 101.703 80.0597C102.807 81.3705 104.347 82.0427 106.288 82.0427C108.262 82.0427 109.802 81.4041 110.906 80.0933C112.01 78.7825 112.546 76.4635 112.546 73.1026C112.546 70.2794 111.977 68.1956 110.839 66.9184C109.701 65.6077 108.162 64.9691 106.221 64.9691C104.514 64.9019 102.874 65.6413 101.736 66.952C100.599 68.2628 100.03 70.4474 100.03 73.5059V73.5059ZM131.287 73.4723C131.287 68.5653 132.659 64.7338 135.37 62.0115C138.08 59.2891 141.896 57.9111 146.748 57.9111C151.735 57.9111 155.583 59.2555 158.26 61.9443C160.938 64.633 162.31 68.3972 162.31 73.237C162.31 76.766 161.707 79.6228 160.536 81.8746C159.398 84.0928 157.625 85.9077 155.449 87.1177C153.207 88.3612 150.429 88.9998 147.116 88.9998C143.736 88.9998 140.958 88.462 138.75 87.3865C136.474 86.2438 134.6 84.4625 133.362 82.2779C131.99 79.9253 131.287 77.0012 131.287 73.4723V73.4723ZM140.523 73.5059C140.523 76.5307 141.092 78.7153 142.197 80.0597C143.301 81.3705 144.841 82.0427 146.782 82.0427C148.756 82.0427 150.296 81.4041 151.4 80.0933C152.504 78.7825 153.04 76.4635 153.04 73.1026C153.04 70.2794 152.471 68.1956 151.333 66.9184C150.195 65.6077 148.656 64.9691 146.715 64.9691C145.008 64.9019 143.335 65.6413 142.23 66.952C141.092 68.2628 140.523 70.4474 140.523 73.5059V73.5059Z" fill="black"/>
<path d="M161.339 58.4492H170.576V81.1019H185V88.496H161.306V58.4492H161.339Z" fill="black"/>
<path d="M151.159 56.7149C160.458 49.6771 163.326 37.7469 157.564 30.068C151.802 22.3892 139.592 21.8695 130.293 28.9073C120.994 35.9451 118.126 47.8753 123.888 55.5542C129.65 63.233 141.86 63.7527 151.159 56.7149Z" fill="white"/>
<path d="M100.172 39.0029L148.227 2.63464L181.479 46.9496L133.424 83.3179L100.172 39.0029Z" fill="white"/>
<path d="M151.159 56.7149C160.458 49.6771 163.326 37.7469 157.564 30.068C151.802 22.3892 139.592 21.8695 130.293 28.9073C120.994 35.9451 118.126 47.8753 123.888 55.5542C129.65 63.233 141.86 63.7527 151.159 56.7149Z" fill="white"/>
<path d="M113.554 41.9619L147.203 16.4966L168.089 44.3314L134.439 69.7967L113.554 41.9619Z" fill="white"/>
<path d="M151.159 56.7159C160.458 49.6781 163.326 37.7479 157.564 30.069C151.802 22.3902 139.592 21.8705 130.293 28.9083C120.994 35.9461 118.126 47.8763 123.888 55.5551C129.65 63.234 141.86 63.7537 151.159 56.7159Z" fill="white" stroke="black" stroke-width="4" stroke-miterlimit="10"/>
<path d="M113.554 41.9619L147.203 16.4966L168.089 44.3314L134.439 69.7967L113.554 41.9619Z" stroke="black" stroke-width="4" stroke-miterlimit="10"/>
<path d="M151.159 56.7149C160.458 49.6771 163.326 37.7469 157.564 30.068C151.802 22.3892 139.592 21.8695 130.293 28.9073C120.994 35.9451 118.126 47.8753 123.888 55.5542C129.65 63.233 141.86 63.7527 151.159 56.7149Z" stroke="black" stroke-width="4" stroke-miterlimit="10"/>
<path d="M113.554 41.9619L147.203 16.4966L168.089 44.3314L134.439 69.7967L113.554 41.9619Z" fill="white"/>
<path d="M151.159 56.7159C160.458 49.6781 163.326 37.7479 157.564 30.069C151.802 22.3902 139.592 21.8705 130.293 28.9083C120.994 35.9461 118.126 47.8763 123.888 55.5551C129.65 63.234 141.86 63.7537 151.159 56.7159Z" fill="white" stroke="black" stroke-width="4" stroke-miterlimit="10"/>
<path d="M113.554 41.9619L147.203 16.4966L168.089 44.3314L134.439 69.7967L113.554 41.9619Z" stroke="black" stroke-width="4" stroke-miterlimit="10"/>
<path d="M100.172 39.0029L148.227 2.63464L181.479 46.9496L133.424 83.3179L100.172 39.0029Z" stroke="black" stroke-width="4" stroke-miterlimit="10"/>
<path d="M151.159 56.7149C160.458 49.6771 163.326 37.7469 157.564 30.068C151.802 22.3892 139.592 21.8695 130.293 28.9073C120.994 35.9451 118.126 47.8753 123.888 55.5542C129.65 63.233 141.86 63.7527 151.159 56.7149Z" stroke="black" stroke-width="4" stroke-miterlimit="10"/>
<path d="M131.32 40.6029L134.667 38.2502L138.783 44.1318C139.486 45.0729 140.021 46.0812 140.423 47.1903C140.657 48.0305 140.59 48.938 140.255 49.7446C139.82 50.7529 139.118 51.5931 138.181 52.1981C137.076 52.9711 136.139 53.408 135.336 53.5425C134.566 53.6769 133.763 53.5425 133.027 53.2064C132.224 52.803 131.521 52.2317 130.985 51.4923L133.863 48.8035C134.098 49.1732 134.399 49.5093 134.734 49.7782C134.968 49.9463 135.236 50.0471 135.537 50.0471C135.771 50.0471 136.005 49.9463 136.173 49.8118C136.507 49.6102 136.742 49.2068 136.708 48.8035C136.608 48.2322 136.373 47.6608 136.005 47.2239L131.32 40.6029V40.6029ZM141.36 44.3335L144.405 41.9136C144.74 42.3169 145.175 42.6194 145.643 42.7875C146.313 42.9891 147.016 42.8547 147.584 42.4178C147.986 42.1489 148.321 41.7792 148.455 41.3087C148.655 40.7037 148.321 40.0315 147.718 39.8298C147.618 39.7962 147.518 39.7626 147.417 39.7626C147.016 39.729 146.313 39.8971 145.275 40.334C143.569 41.0398 142.23 41.3086 141.226 41.2078C140.255 41.107 139.352 40.6029 138.816 39.7626C138.415 39.1913 138.214 38.5191 138.181 37.8469C138.181 37.0739 138.381 36.3009 138.816 35.6623C139.452 34.7548 140.222 33.9818 141.159 33.3768C142.565 32.4022 143.803 31.9316 144.874 31.9316C145.945 31.9316 146.949 32.4358 147.886 33.4777L144.874 35.8639C144.271 35.0909 143.134 34.9229 142.364 35.5278L142.263 35.6287C141.929 35.8303 141.694 36.1328 141.561 36.5025C141.46 36.7714 141.527 37.0739 141.694 37.3091C141.828 37.4772 142.029 37.6116 142.263 37.6116C142.531 37.6452 143 37.5108 143.669 37.2083C145.342 36.5025 146.614 36.0992 147.484 35.9648C148.22 35.8303 148.99 35.8975 149.693 36.2C150.329 36.4689 150.864 36.9394 151.232 37.5108C151.701 38.183 151.969 38.9896 152.002 39.8298C152.035 40.7037 151.801 41.5439 151.333 42.2833C150.73 43.1908 149.961 43.9638 149.057 44.5688C147.216 45.8459 145.71 46.3837 144.506 46.182C143.2 45.9804 142.13 45.3082 141.36 44.3335V44.3335Z" fill="black"/>
</g>
<defs>
<clipPath id="clip0_51_128">
<rect width="185" height="89" fill="white"/>
</clipPath>
</defs>
</svg>
