<svg width="329" height="297" viewBox="0 0 329 297" fill="none" xmlns="http://www.w3.org/2000/svg">
<g clip-path="url(#clip0_51_27)">
<path d="M71.6351 9.7736L164.166 0L256.698 9.7736L328.335 105.853L164.166 296.852L-0.00195312 105.853L71.6351 9.7736Z" fill="#FDB300"/>
<path d="M66.4945 105.853L164.167 296.853L-0.00195312 105.853H66.4945Z" fill="#EA6C00"/>
<path d="M261.839 105.853L164.166 296.853L328.335 105.853H261.839Z" fill="#EA6C00"/>
<path d="M66.4941 105.853H261.838L164.166 296.853L66.4941 105.853Z" fill="#FDAD00"/>
<path d="M164.167 0L71.6355 9.77347L66.4951 105.853L164.167 0Z" fill="#FDD231"/>
<path d="M164.167 0L256.698 9.77347L261.839 105.853L164.167 0Z" fill="#FDD231"/>
<path d="M328.335 105.853L256.697 9.77344L261.839 105.853H328.335Z" fill="#FDAD00"/>
<path d="M-0.00195312 105.853L71.6349 9.77344L66.4945 105.853H-0.00195312Z" fill="#FDAD00"/>
<path d="M164.167 0L66.4951 105.853H261.839L164.167 0Z" fill="#FEEEB7"/>
</g>
<defs>
<clipPath id="clip0_51_27">
<rect width="329" height="297" fill="white"/>
</clipPath>
</defs>
</svg>
